<?xml version="1.0"?>
<svg width="156" height="33" xmlns="http://www.w3.org/2000/svg" xmlns:svg="http://www.w3.org/2000/svg">
 <title/>
 <defs>
  <clipPath id="clip0_196_4958">
   <rect fill="white" height="32" id="svg_1" transform="translate(0 0.5)" width="156"/>
  </clipPath>
 </defs>
 <g class="layer">
  <title>Layer 1</title>
  <g clip-path="url(#clip0_196_4958)" id="svg_2">
   <path d="m39.24,24.47l-2.75,0c-0.31,-7.81 -6.05,-14.27 -13.62,-15.73c0.87,-0.86 1.37,-2.04 1.37,-3.39c0,-2.7 -2.03,-4.85 -4.57,-4.85c-2.54,0 -4.57,2.15 -4.57,4.85c0,1.35 0.5,2.58 1.37,3.45c-7.58,1.45 -13.31,7.92 -13.62,15.73l-2.85,0c0,1.07 0,0.48 0,1.07c0,0.6 0,0.18 0,1.08l39.24,0c0,-0.49 0,-0.3 0,-0.9c0,-0.59 0,-0.81 0,-1.31zm-19.57,-21.82c1.43,0 2.54,1.19 2.54,2.7c0,1.51 -1.11,2.69 -2.54,2.69c-1.42,0 -2.54,-1.18 -2.54,-2.69c0,-1.51 1.12,-2.7 2.54,-2.7zm0,7.98c7.93,0 14.43,6.19 14.79,13.9l-29.57,0c0.35,-7.76 6.86,-13.9 14.79,-13.9z" fill="#9d4edd" id="svg_3"/>
   <path d="m39.24,30.35l-39.24,0c0,0.33 0,0.48 0,1.07c0,0.6 0,0.48 0,1.08l39.24,0c0,-0.6 0,-0.41 0,-1.01c0,-0.59 0,-0.4 0,-1.14z" fill="#9d4edd" id="svg_4"/>
   <text fill="#000000" font-family="Helvetica" font-size="24" font-weight="bold" id="svg_10" stroke-width="0" text-anchor="middle" transform="matrix(0.932927 0 0 1 0 0)" x="106" xml:space="preserve" y="25">TelmaFood</text>
  </g>
 </g>
</svg>